<svg width="156" height="35" viewBox="0 0 156 35" fill="none" xmlns="http://www.w3.org/2000/svg">
<g clip-path="url(#clip0)">
<path fill-rule="evenodd" clip-rule="evenodd" d="M91.6541 29.796C93.7739 29.796 95.0542 29.4957 96.7354 28.4425C97.8839 27.7232 98.7743 26.7425 99.5168 25.6323L96.5275 23.1603C93.7645 28.3896 86.9756 25.8895 86.9756 20.4931C86.9756 12.0781 95.6002 12.5062 96.8527 17.8907H88.7951V21.2737H101.076L101.141 19.7123C101.141 17.6823 100.304 15.134 99.0776 13.6466C98.8871 13.4157 98.7359 13.2324 98.552 13.002C97.6819 11.9137 95.6129 10.7272 94.1844 10.4135C92.7043 10.0889 91.4893 10.0543 90.0287 10.4085C88.1513 10.8638 86.9514 11.7162 85.6266 13.0272C84.8827 13.7639 84.2283 14.9164 83.8095 15.8918C83.3644 16.9293 83.2271 17.5531 83.065 18.6595C82.842 20.1842 83.0656 22.3641 83.6146 23.7274C84.5044 25.9353 85.8197 27.6768 87.9065 28.7985C88.8483 29.3044 90.2386 29.7954 91.6541 29.7954V29.796Z" fill="white"/>
<path fill-rule="evenodd" clip-rule="evenodd" d="M140.944 19.9722C140.944 13.0307 148.657 11.9643 150.699 17.6217C151.522 19.9012 151.056 22.6834 149.796 24.2161C148.248 26.0991 145.924 26.5817 143.845 25.5247C142.975 25.0824 142.182 24.2732 141.744 23.3995C141.293 22.5004 140.943 21.292 140.943 19.9722H140.944ZM136.72 34.9999H141.074V28.3645C142.276 29.0013 143.433 29.7473 145.102 29.7958C145.948 29.8203 146.702 29.854 147.6 29.6941C148.368 29.5572 149.07 29.3094 149.651 29.0152C151.453 28.1046 152.905 26.835 153.832 25.004C154.14 24.3979 154.454 23.751 154.641 23.0814C155.554 19.8004 154.958 16.5467 153.446 14.2864C153.049 13.693 152.726 13.2593 152.234 12.7673C151.838 12.372 151.211 11.8369 150.729 11.5421C148.863 10.402 147.709 10.214 145.492 10.214C144.203 10.214 142.603 10.774 141.555 11.4114C141.36 11.53 141.27 11.6062 141.073 11.7103V10.214H136.72V34.9996L136.72 34.9999Z" fill="white"/>
<path fill-rule="evenodd" clip-rule="evenodd" d="M52.7 26.0217C49.5935 26.0217 47.6963 23.2895 47.6963 20.2968C47.6963 18.4333 48.0377 17.0836 48.9671 15.8442C49.5814 15.0253 50.9862 13.9866 52.3748 13.9866H53.0895C54.5835 13.9866 55.8162 14.9312 56.5152 15.7612C56.9024 16.2209 57.2276 16.8915 57.4343 17.4435C58.2514 19.626 57.8696 22.3263 56.3764 24.238C55.9603 24.7708 55.4778 25.1208 54.8827 25.4747C54.4134 25.7535 53.4158 26.0214 52.6997 26.0214L52.7 26.0217ZM43.4727 29.8599H47.8263V28.2986C50.0297 29.7757 52.4933 30.1562 55.1311 29.4966C55.4615 29.4138 55.7043 29.3233 55.9588 29.2195C56.1924 29.1249 56.5303 28.9951 56.727 28.8825C57.9842 28.1626 57.7532 28.2406 58.6684 27.5083C59.5839 26.7759 60.5352 25.2533 60.99 24.1729C62.0906 21.5578 62.0699 18.5572 61.0089 15.9468C60.1424 13.8145 58.7488 12.3262 56.7908 11.1923C54.4075 9.81191 50.6318 9.87399 48.2678 11.3715C48.0918 11.4827 48.0091 11.548 47.8263 11.645V5.00952H43.4727V29.8602V29.8599Z" fill="white"/>
<path fill-rule="evenodd" clip-rule="evenodd" d="M72.0003 29.796C74.1201 29.796 75.4003 29.4957 77.0816 28.4425C78.2301 27.7232 79.1205 26.7425 79.863 25.6323L76.8737 23.1603C74.1107 28.3896 67.3218 25.8895 67.3218 20.4931C67.3218 12.0781 75.9464 12.5062 77.1989 17.8907H69.1413V21.2737H81.4226L81.4875 19.7123C81.4875 17.6823 80.6497 15.134 79.4238 13.6466C79.2333 13.4157 79.0821 13.2324 78.8981 13.002C78.0281 11.9137 75.9591 10.7272 74.5306 10.4135C73.0505 10.0889 71.8355 10.0543 70.3749 10.4085C68.4975 10.8638 67.2976 11.7162 65.9728 13.0272C65.2289 13.7639 64.5744 14.9164 64.1557 15.8918C63.7106 16.9293 63.5733 17.5531 63.4112 18.6595C63.1882 20.1842 63.4118 22.3641 63.9608 23.7274C64.8506 25.9353 66.1659 27.6768 68.2527 28.7985C69.1945 29.3044 70.5848 29.7954 72.0003 29.7954V29.796Z" fill="white"/>
<path fill-rule="evenodd" clip-rule="evenodd" d="M125.738 13.7932H126.453C127.928 13.7932 129.267 14.8531 129.916 15.7256C131.654 18.0616 131.746 21.8245 129.999 24.0446C129.569 24.5913 129.205 24.949 128.611 25.3215C127.596 25.9572 126.922 25.9587 125.803 25.9587C123.725 25.9587 122.028 24.0937 121.407 22.2278C120.488 19.4633 121.262 15.8235 123.661 14.4463C124.207 14.1332 124.901 13.7935 125.738 13.7935V13.7932ZM125.673 29.7966C126.967 29.7966 127.187 29.8141 128.481 29.4853C128.991 29.3558 129.75 29.0495 130.144 28.8085C130.401 28.6518 130.576 28.5637 130.832 28.3916C131.823 27.7276 131.935 27.5872 132.707 26.7555C134.79 24.5147 135.665 20.8861 135.003 17.5933C134.855 16.8577 134.694 16.4222 134.47 15.7851C134.219 15.0734 133.665 14.1161 133.22 13.5236C133.051 13.2986 132.865 13.0381 132.675 12.8329C131.55 11.6172 129.955 10.5197 128.268 10.1539C126.162 9.69744 124.279 9.83759 122.359 10.8005C121.527 11.218 120.271 12.0639 119.695 12.8172C118.78 14.0132 118.62 14.004 117.893 15.6975C117.65 16.2637 117.465 16.798 117.318 17.4632C117.238 17.8257 117.204 18.0888 117.149 18.4652C117.1 18.7975 117.116 19.2395 117.058 19.6109C116.987 20.0624 117.143 21.3585 117.207 21.7488C117.419 23.0556 117.815 24.0922 118.416 25.2216C118.504 25.386 118.548 25.4333 118.643 25.5808L119.397 26.6476C120.736 28.373 123.402 29.7966 125.673 29.7966H125.673Z" fill="white"/>
<path fill-rule="evenodd" clip-rule="evenodd" d="M101.11 13.8574H111.637C111.288 14.3792 110.706 14.9469 110.31 15.4563C110.088 15.7413 109.836 15.9876 109.622 16.2643C108.811 17.3166 107.067 19.1718 106.169 20.2882L102.068 25.0954C101.964 25.2059 100.72 26.6085 100.72 26.738V29.7957H117.225V26.0876H106.308L110.417 21.2887C110.655 21.0215 110.855 20.7347 111.1 20.4766C111.355 20.2093 111.535 19.9302 111.783 19.6635C112.322 19.0837 117.225 13.4103 117.225 13.2066V10.1489H101.11V13.8571V13.8574Z" fill="white"/>
<path fill-rule="evenodd" clip-rule="evenodd" d="M155.175 27.0624L155.194 27.0431C155.193 27.0443 155.169 27.0559 155.175 27.0624Z" fill="white"/>
<path fill-rule="evenodd" clip-rule="evenodd" d="M5.99592 0C4.9936 0 3.99157 0.000295659 2.98925 0H2.85606C1.9695 0.00147829 1.39363 0.0357761 0.696962 0.762801C0.145892 1.33727 0.00295322 1.98151 0 3.07012V3.12245V30.5105V30.5569V32.0754C0.0183099 32.5325 0.0708804 32.9565 0.202594 33.3003C0.463658 33.9801 1.03658 34.5454 1.79437 34.7644C2.62511 35.0045 6.5588 34.8694 7.79768 34.8694C7.79768 23.734 13.6947 11.4018 26.2523 11.3843C26.8137 11.3832 27.1513 11.45 27.7466 11.45V11.515C26.876 11.515 25.0078 12.0759 24.1632 12.4162C14.7682 16.2036 11.3717 25.4654 11.3717 34.8694C13.5591 34.8694 15.7471 34.8694 17.9346 34.8694C20.6291 34.8694 23.2708 35.1133 25.5456 34.2923C26.5293 33.9372 27.951 33.1856 28.6731 32.4793C29.4406 31.7292 29.4672 31.825 30.2442 30.7996C30.9491 29.8692 30.9807 29.5606 31.45 28.6706C31.5026 28.4761 31.6065 28.2517 31.6857 28.0146C32.6381 25.1567 32.2081 21.9329 30.606 19.5161C29.7073 18.1611 29.1299 17.8522 28.8506 17.435C29.1391 17.0036 29.8511 16.5743 30.8009 15.0254C30.8853 14.8876 30.9899 14.6877 31.0566 14.5698C31.4326 13.9034 31.8776 12.5773 32.0176 11.8231C32.3173 10.2085 32.25 8.23291 31.626 6.65469C30.7899 4.53896 29.7238 2.98763 27.7591 1.67875C26.0397 0.533665 24.46 0.127725 22.7791 0.000295947H17.7488C13.8308 0.000295947 9.91306 0.000295947 5.99533 0.000295947L5.99592 0Z" fill="white"/>
</g>
<defs>
<clipPath id="clip0">
<rect width="155.194" height="35" fill="white"/>
</clipPath>
</defs>
</svg>
