<svg width="17" height="16" viewBox="0 0 17 16" fill="none" xmlns="http://www.w3.org/2000/svg">
<path d="M11.9805 7.92745L11.9804 7.92748L11.9842 7.93669C12.0008 7.97727 12.0008 8.02278 11.9842 8.06336L11.9841 8.06332L11.9805 8.07261C11.973 8.09193 11.962 8.10968 11.948 8.12495L8.61978 11.4531L8.61978 11.4531L8.61833 11.4546C8.60284 11.4702 8.5844 11.4826 8.5641 11.4911C8.54379 11.4995 8.522 11.5039 8.5 11.5039C8.47799 11.5039 8.45621 11.4995 8.4359 11.4911C8.4156 11.4826 8.39716 11.4702 8.38167 11.4546L8.38168 11.4546L8.37877 11.4517C8.36314 11.4362 8.35075 11.4178 8.34229 11.3975L7.88074 11.5897L8.34229 11.3975C8.33382 11.3771 8.32947 11.3554 8.32947 11.3334C8.32947 11.3114 8.33382 11.2896 8.34229 11.2693L7.88074 11.077L8.34229 11.2693C8.35075 11.249 8.36314 11.2305 8.37877 11.215L8.37968 11.2141L10.5797 9.02078L11.4364 8.16669H10.2267H5.16667C5.12246 8.16669 5.08007 8.14914 5.04882 8.11788C5.01756 8.08662 5 8.04423 5 8.00003C5 7.95583 5.01756 7.91343 5.04882 7.88218C5.08007 7.85092 5.12246 7.83336 5.16667 7.83336H10.2267H11.4364L10.5797 6.97927L8.38022 4.78647C8.38015 4.78641 8.38009 4.78634 8.38002 4.78628C8.34838 4.75453 8.33061 4.71153 8.33061 4.66669C8.33061 4.64445 8.33499 4.62242 8.3435 4.60187L7.88692 4.41275L8.3435 4.60187C8.35201 4.58132 8.36449 4.56264 8.38022 4.54691C8.41199 4.51515 8.45507 4.4973 8.5 4.4973C8.52224 4.4973 8.54427 4.50168 8.56482 4.51019C8.58538 4.51871 8.60405 4.53118 8.61978 4.54691L11.948 7.8751C11.962 7.89037 11.973 7.90812 11.9805 7.92745Z" fill="black" stroke="url(#paint0_linear)"/>
<defs>
<linearGradient id="paint0_linear" x1="5.46577" y1="10.629" x2="11.0833" y2="4.93068" gradientUnits="userSpaceOnUse">
<stop stop-color="#0977DE"/>
<stop offset="0.639216" stop-color="#0590E5"/>
<stop offset="1" stop-color="#01AAED"/>
</linearGradient>
</defs>
</svg>
