<svg width="130" height="29" viewBox="0 0 130 29" fill="none" xmlns="http://www.w3.org/2000/svg">
<path fill-rule="evenodd" clip-rule="evenodd" d="M76.7756 24.688C78.5513 24.688 79.6237 24.4391 81.032 23.5665C81.9941 22.9705 82.7399 22.1579 83.3618 21.2381L80.8579 19.1898C78.5434 23.5227 72.8566 21.4512 72.8566 16.9799C72.8566 10.0074 80.0811 10.3622 81.1302 14.8236H74.3807V17.6266H84.6683L84.7227 16.3329C84.7227 14.6509 84.0209 12.5395 82.994 11.307C82.8344 11.1157 82.7078 10.9638 82.5537 10.773C81.8249 9.87123 80.0917 8.88814 78.8951 8.62822C77.6553 8.35924 76.6376 8.33058 75.414 8.62406C73.8414 9.00132 72.8363 9.70759 71.7266 10.7938C71.1034 11.4043 70.5552 12.3592 70.2044 13.1674C69.8316 14.027 69.7166 14.5439 69.5808 15.4606C69.394 16.7239 69.5813 18.5301 70.0411 19.6597C70.7865 21.4892 71.8883 22.9321 73.6363 23.8615C74.4252 24.2807 75.5899 24.6875 76.7756 24.6875V24.688Z" fill="#1F1D1D"/>
<path fill-rule="evenodd" clip-rule="evenodd" d="M118.063 16.5483C118.063 10.7968 124.525 9.91314 126.235 14.6007C126.925 16.4895 126.534 18.7947 125.479 20.0647C124.182 21.6249 122.235 22.0247 120.494 21.1489C119.765 20.7824 119.101 20.1119 118.734 19.388C118.356 18.6431 118.063 17.6419 118.063 16.5483H118.063ZM114.525 28.9999H118.172V23.5019C119.179 24.0296 120.149 24.6476 121.547 24.6878C122.256 24.7082 122.887 24.7361 123.639 24.6036C124.283 24.4901 124.87 24.2848 125.357 24.0411C126.866 23.2866 128.083 22.2347 128.86 20.7175C129.117 20.2153 129.381 19.6793 129.537 19.1244C130.302 16.406 129.803 13.71 128.536 11.8372C128.204 11.3455 127.933 10.9861 127.521 10.5785C127.189 10.251 126.664 9.80756 126.26 9.56332C124.697 8.61869 123.731 8.46289 121.874 8.46289C120.794 8.46289 119.453 8.92687 118.575 9.45504C118.412 9.55327 118.337 9.61648 118.172 9.70271V8.46289H114.525V28.9996L114.525 28.9999Z" fill="#1F1D1D"/>
<path fill-rule="evenodd" clip-rule="evenodd" d="M44.1448 21.561C41.5426 21.561 39.9534 19.2972 39.9534 16.8175C39.9534 15.2735 40.2394 14.1552 41.0179 13.1282C41.5325 12.4496 42.7093 11.5891 43.8724 11.5891H44.4711C45.7226 11.5891 46.7552 12.3717 47.3407 13.0594C47.665 13.4403 47.9374 13.9959 48.1106 14.4533C48.7951 16.2617 48.4752 18.4991 47.2244 20.0831C46.8759 20.5245 46.4717 20.8146 45.9732 21.1078C45.5801 21.3388 44.7445 21.5608 44.1446 21.5608L44.1448 21.561ZM36.4154 24.7413H40.0623V23.4475C41.908 24.6714 43.9716 24.9867 46.1812 24.4402C46.4581 24.3716 46.6614 24.2966 46.8746 24.2106C47.0703 24.1323 47.3533 24.0247 47.5181 23.9314C48.5712 23.3349 48.3777 23.3995 49.1444 22.7927C49.9112 22.1859 50.7081 20.9243 51.089 20.0292C52.011 17.8624 51.9937 15.3761 51.1049 13.2132C50.379 11.4465 49.2117 10.2133 47.5715 9.2738C45.5752 8.13001 42.4124 8.18145 40.4321 9.42225C40.2847 9.51436 40.2154 9.5685 40.0623 9.64885V4.15088H36.4154V24.7415V24.7413Z" fill="#1F1D1D"/>
<path fill-rule="evenodd" clip-rule="evenodd" d="M60.312 24.688C62.0877 24.688 63.16 24.4391 64.5684 23.5665C65.5304 22.9705 66.2763 22.1579 66.8982 21.2381L64.3942 19.1898C62.0797 23.5227 56.393 21.4512 56.393 16.9799C56.393 10.0074 63.6175 10.3622 64.6666 14.8236H57.9171V17.6266H68.2046L68.2591 16.3329C68.2591 14.6509 67.5572 12.5395 66.5304 11.307C66.3708 11.1157 66.2441 10.9638 66.09 10.773C65.3612 9.87123 63.6281 8.88814 62.4315 8.62822C61.1916 8.35924 60.1739 8.33058 58.9504 8.62406C57.3778 9.00132 56.3727 9.70759 55.2629 10.7938C54.6398 11.4043 54.0916 12.3592 53.7408 13.1674C53.368 14.027 53.253 14.5439 53.1171 15.4606C52.9304 16.7239 53.1176 18.5301 53.5775 19.6597C54.3229 21.4892 55.4247 22.9321 57.1727 23.8615C57.9616 24.2807 59.1263 24.6875 60.312 24.6875V24.688Z" fill="#1F1D1D"/>
<path fill-rule="evenodd" clip-rule="evenodd" d="M105.326 11.429H105.925C107.161 11.429 108.282 12.3072 108.826 13.0302C110.281 14.9657 110.358 18.0835 108.896 19.923C108.535 20.376 108.23 20.6724 107.732 20.9811C106.882 21.5078 106.318 21.509 105.381 21.509C103.64 21.509 102.218 19.9637 101.698 18.4176C100.928 16.1271 101.577 13.1113 103.586 11.9702C104.044 11.7107 104.625 11.4293 105.326 11.4293V11.429ZM105.272 24.689C106.356 24.689 106.54 24.7035 107.624 24.4311C108.051 24.3238 108.687 24.07 109.017 23.8703C109.232 23.7405 109.379 23.6675 109.594 23.5249C110.423 22.9747 110.517 22.8583 111.164 22.1692C112.908 20.3125 113.642 17.306 113.087 14.5777C112.963 13.9682 112.829 13.6073 112.641 13.0794C112.431 12.4898 111.966 11.6965 111.594 11.2056C111.452 11.0192 111.296 10.8033 111.137 10.6333C110.195 9.62599 108.858 8.71664 107.446 8.41361C105.682 8.03537 104.104 8.15149 102.496 8.94937C101.799 9.29528 100.747 9.99615 100.264 10.6203C99.4977 11.6113 99.3638 11.6037 98.755 13.0069C98.5515 13.476 98.3964 13.9187 98.2729 14.4699C98.2056 14.7702 98.1777 14.9882 98.1314 15.3001C98.0906 15.5755 98.1034 15.9417 98.0552 16.2494C97.9961 16.6235 98.1267 17.6974 98.1796 18.0208C98.3578 19.1036 98.6892 19.9625 99.1932 20.8983C99.2666 21.0345 99.303 21.0737 99.3827 21.1959L100.014 22.0798C101.136 23.5095 103.369 24.689 105.272 24.689H105.272Z" fill="#1F1D1D"/>
<path fill-rule="evenodd" clip-rule="evenodd" d="M84.6962 11.4819H93.514C93.2216 11.9143 92.7341 12.3846 92.4026 12.8067C92.2168 13.0429 92.0058 13.2469 91.8267 13.4762C91.1466 14.3481 89.6863 15.8853 88.9338 16.8103L85.4989 20.7934C85.4111 20.885 84.3696 22.0472 84.3696 22.1545V24.688H98.1952V21.6155H89.0506L92.4924 17.6393C92.6917 17.4179 92.8592 17.1803 93.0648 16.9664C93.278 16.7449 93.4289 16.5137 93.6365 16.2927C94.0877 15.8123 98.1952 11.1115 98.1952 10.9427V8.40918H84.6962V11.4817V11.4819Z" fill="#1F1D1D"/>
<path fill-rule="evenodd" clip-rule="evenodd" d="M129.984 22.4226L130 22.4072C129.999 22.4082 129.979 22.4175 129.984 22.4226Z" fill="#1E1E1E"/>
<path fill-rule="evenodd" clip-rule="evenodd" d="M5.02257 0C4.18296 0 3.34359 0.000244975 2.50398 0H2.39242C1.64978 0.00122487 1.16739 0.0296432 0.58382 0.632036C0.122208 1.10802 0.0024738 1.64182 0 2.54382V2.58718V25.2802V25.3186V26.5768C0.0153376 26.9556 0.059374 27.3069 0.169706 27.5918C0.38839 28.155 0.868306 28.6234 1.50308 28.8049C2.19897 29.0038 5.49407 28.8919 6.53184 28.8919C6.53184 19.6654 11.4715 9.44721 21.9906 9.43276C22.4609 9.43178 22.7437 9.48714 23.2424 9.48714V9.54104C22.5131 9.54104 20.9482 10.0058 20.2407 10.2877C12.3708 13.4258 9.52563 21.0999 9.52563 28.8919C11.358 28.8919 13.1908 28.8919 15.0232 28.8919C17.2803 28.8919 19.4931 29.094 21.3987 28.4137C22.2227 28.1194 23.4136 27.4967 24.0184 26.9115C24.6614 26.29 24.6836 26.3693 25.3345 25.5198C25.925 24.7488 25.9515 24.4931 26.3445 23.7557C26.3886 23.5945 26.4757 23.4086 26.542 23.2121C27.3398 20.8442 26.9796 18.173 25.6375 16.1706C24.8847 15.0478 24.4011 14.7918 24.1671 14.4462C24.4088 14.0888 25.0052 13.733 25.8008 12.4496C25.8715 12.3355 25.9591 12.1699 26.015 12.0721C26.3299 11.5199 26.7027 10.4212 26.82 9.7963C27.0711 8.45849 27.0147 6.82157 26.492 5.5139C25.7916 3.76086 24.8986 2.47547 23.2528 1.39097C21.8125 0.44218 20.4893 0.105829 19.0812 0.000245214H14.8676C11.5856 0.000245214 8.30382 0.000245214 5.02207 0.000245214L5.02257 0Z" fill="url(#paint0_linear)"/>
<defs>
<linearGradient id="paint0_linear" x1="3.25652" y1="23.9566" x2="23.5213" y2="4.76876" gradientUnits="userSpaceOnUse">
<stop stop-color="#0977DE"/>
<stop offset="0.639216" stop-color="#0590E5"/>
<stop offset="1" stop-color="#01AAED"/>
</linearGradient>
</defs>
</svg>
