<svg width="20" height="20" viewBox="0 0 20 20" fill="none" xmlns="http://www.w3.org/2000/svg">
<path d="M17.8073 9.86443L17.8082 9.86664C17.8266 9.9087 17.8361 9.9541 17.8361 9.99998C17.8361 10.0459 17.8266 10.0913 17.8082 10.1333L17.8073 10.1355C16.1791 13.9158 13.1628 16.1666 9.99981 16.1666C6.83684 16.1666 3.82053 13.9158 2.19236 10.1355L2.19237 10.1355L2.1914 10.1333C2.17305 10.0913 2.16357 10.0459 2.16357 9.99998C2.16357 9.95409 2.17305 9.9087 2.1914 9.86665L2.19141 9.86665L2.19236 9.86443C3.82053 6.08418 6.83684 3.83331 9.99981 3.83331C13.1628 3.83331 16.1791 6.08418 17.8073 9.86443ZM2.96332 9.78867L2.86479 9.99998L2.96332 10.2113C4.45762 13.4158 7.10258 15.5 9.99981 15.5C12.897 15.5 15.542 13.4158 17.0363 10.2113L17.1348 9.99998L17.0363 9.78867C15.542 6.58415 12.897 4.49998 9.99981 4.49998C7.10258 4.49998 4.45762 6.58415 2.96332 9.78867ZM8.4257 7.64415C8.89164 7.33282 9.43943 7.16665 9.99981 7.16665C10.7513 7.16665 11.4719 7.46516 12.0033 7.99651C12.5346 8.52786 12.8331 9.24853 12.8331 9.99998C12.8331 10.5604 12.667 11.1082 12.3556 11.5741C12.0443 12.04 11.6018 12.4032 11.0841 12.6176C10.5664 12.8321 9.99667 12.8882 9.44706 12.7789C8.89744 12.6695 8.39259 12.3997 7.99634 12.0034C7.60009 11.6072 7.33024 11.1023 7.22092 10.5527C7.1116 10.0031 7.1677 9.43343 7.38215 8.91571C7.5966 8.39799 7.95976 7.95548 8.4257 7.64415ZM8.79608 11.8015C9.15238 12.0396 9.57129 12.1666 9.99981 12.1666C10.5744 12.1666 11.1255 11.9384 11.5319 11.532C11.9382 11.1257 12.1665 10.5746 12.1665 9.99998C12.1665 9.57145 12.0394 9.15255 11.8013 8.79624C11.5633 8.43994 11.2249 8.16223 10.829 7.99824C10.4331 7.83425 9.99741 7.79134 9.57712 7.87494C9.15682 7.95855 8.77076 8.1649 8.46775 8.46791C8.16473 8.77093 7.95838 9.15699 7.87478 9.57728C7.79118 9.99758 7.83408 10.4332 7.99807 10.8291C8.16206 11.225 8.43977 11.5634 8.79608 11.8015Z" fill="black" stroke="#737A91"/>
</svg>
