<svg width="20" height="20" viewBox="0 0 20 20" fill="none" xmlns="http://www.w3.org/2000/svg">
<path d="M10.8333 16.6667H5C4.77899 16.6667 4.56702 16.5789 4.41074 16.4226C4.25446 16.2663 4.16667 16.0543 4.16667 15.8333V4.16666C4.16667 3.94564 4.25446 3.73368 4.41074 3.5774C4.56702 3.42112 4.77899 3.33332 5 3.33332H9.16667V5.83332C9.16667 6.49636 9.43006 7.13225 9.8989 7.60109C10.3677 8.06993 11.0036 8.33332 11.6667 8.33332H14.1667V9.99999C14.1667 10.221 14.2545 10.433 14.4107 10.5892C14.567 10.7455 14.779 10.8333 15 10.8333C15.221 10.8333 15.433 10.7455 15.5893 10.5892C15.7455 10.433 15.8333 10.221 15.8333 9.99999V7.49999C15.8333 7.49999 15.8333 7.49999 15.8333 7.44999C15.8247 7.37344 15.8079 7.29802 15.7833 7.22499V7.14999C15.7433 7.06431 15.6898 6.98554 15.625 6.91666L10.625 1.91666C10.5561 1.85184 10.4774 1.79839 10.3917 1.75832C10.3668 1.75479 10.3415 1.75479 10.3167 1.75832C10.232 1.70977 10.1385 1.67861 10.0417 1.66666H5C4.33696 1.66666 3.70107 1.93005 3.23223 2.39889C2.76339 2.86773 2.5 3.50362 2.5 4.16666V15.8333C2.5 16.4964 2.76339 17.1322 3.23223 17.6011C3.70107 18.0699 4.33696 18.3333 5 18.3333H10.8333C11.0543 18.3333 11.2663 18.2455 11.4226 18.0892C11.5789 17.933 11.6667 17.721 11.6667 17.5C11.6667 17.279 11.5789 17.067 11.4226 16.9107C11.2663 16.7545 11.0543 16.6667 10.8333 16.6667ZM10.8333 4.50832L12.9917 6.66666H11.6667C11.4457 6.66666 11.2337 6.57886 11.0774 6.42258C10.9211 6.2663 10.8333 6.05434 10.8333 5.83332V4.50832ZM6.66667 6.66666C6.44565 6.66666 6.23369 6.75445 6.07741 6.91073C5.92113 7.06701 5.83333 7.27898 5.83333 7.49999C5.83333 7.721 5.92113 7.93297 6.07741 8.08925C6.23369 8.24553 6.44565 8.33332 6.66667 8.33332H7.5C7.72101 8.33332 7.93297 8.24553 8.08926 8.08925C8.24554 7.93297 8.33333 7.721 8.33333 7.49999C8.33333 7.27898 8.24554 7.06701 8.08926 6.91073C7.93297 6.75445 7.72101 6.66666 7.5 6.66666H6.66667ZM11.6667 9.99999H6.66667C6.44565 9.99999 6.23369 10.0878 6.07741 10.2441C5.92113 10.4003 5.83333 10.6123 5.83333 10.8333C5.83333 11.0543 5.92113 11.2663 6.07741 11.4226C6.23369 11.5789 6.44565 11.6667 6.66667 11.6667H11.6667C11.8877 11.6667 12.0996 11.5789 12.2559 11.4226C12.4122 11.2663 12.5 11.0543 12.5 10.8333C12.5 10.6123 12.4122 10.4003 12.2559 10.2441C12.0996 10.0878 11.8877 9.99999 11.6667 9.99999ZM17.2583 14.4083L15.5917 12.7417C15.5124 12.6658 15.419 12.6063 15.3167 12.5667C15.1138 12.4833 14.8862 12.4833 14.6833 12.5667C14.581 12.6063 14.4876 12.6658 14.4083 12.7417L12.7417 14.4083C12.5847 14.5652 12.4966 14.7781 12.4966 15C12.4966 15.2219 12.5847 15.4347 12.7417 15.5917C12.8986 15.7486 13.1114 15.8367 13.3333 15.8367C13.5553 15.8367 13.7681 15.7486 13.925 15.5917L14.1667 15.3417V17.5C14.1667 17.721 14.2545 17.933 14.4107 18.0892C14.567 18.2455 14.779 18.3333 15 18.3333C15.221 18.3333 15.433 18.2455 15.5893 18.0892C15.7455 17.933 15.8333 17.721 15.8333 17.5V15.3417L16.075 15.5917C16.1525 15.6698 16.2446 15.7318 16.3462 15.7741C16.4477 15.8164 16.5567 15.8382 16.6667 15.8382C16.7767 15.8382 16.8856 15.8164 16.9871 15.7741C17.0887 15.7318 17.1809 15.6698 17.2583 15.5917C17.3364 15.5142 17.3984 15.422 17.4407 15.3205C17.4831 15.2189 17.5048 15.11 17.5048 15C17.5048 14.89 17.4831 14.7811 17.4407 14.6795C17.3984 14.578 17.3364 14.4858 17.2583 14.4083ZM10 15C10.221 15 10.433 14.9122 10.5893 14.7559C10.7455 14.5996 10.8333 14.3877 10.8333 14.1667C10.8333 13.9456 10.7455 13.7337 10.5893 13.5774C10.433 13.4211 10.221 13.3333 10 13.3333H6.66667C6.44565 13.3333 6.23369 13.4211 6.07741 13.5774C5.92113 13.7337 5.83333 13.9456 5.83333 14.1667C5.83333 14.3877 5.92113 14.5996 6.07741 14.7559C6.23369 14.9122 6.44565 15 6.66667 15H10Z" fill="#3B82F6"/>
</svg>
